<svg xmlns="http://www.w3.org/2000/svg" width="24" height="24" viewBox="0 0 24 24">
  <path id="Icon_ionic-ios-checkmark-circle" data-name="Icon ionic-ios-checkmark-circle" d="M13.875,1.875a12,12,0,1,0,12,12A12,12,0,0,0,13.875,1.875Zm6.144,8.683-7.713,7.748H12.3a1.042,1.042,0,0,1-.669.317,1.01,1.01,0,0,1-.675-.329L7.725,15.063a.23.23,0,0,1,0-.329l1.027-1.027a.223.223,0,0,1,.323,0l2.562,2.562,7.038-7.09a.228.228,0,0,1,.162-.069h0A.209.209,0,0,1,19,9.179l1.01,1.044A.227.227,0,0,1,20.019,10.558Z" transform="translate(-1.875 -1.875)" fill="#96cf04"/>
</svg>
