<svg xmlns="http://www.w3.org/2000/svg" width="23.833" height="22" viewBox="0 0 23.833 22">
  <g id="Icon_ionic-ios-archive" data-name="Icon ionic-ios-archive" transform="translate(-3.375 -4.5)">
    <path id="Path_1313" data-name="Path 1313" d="M26.979,7.708H3.6a.23.23,0,0,1-.229-.229V6.333A1.831,1.831,0,0,1,5.208,4.5H25.375a1.831,1.831,0,0,1,1.833,1.833V7.479A.23.23,0,0,1,26.979,7.708Z" fill="#fd9100"/>
    <path id="Path_1314" data-name="Path 1314" d="M26.042,10.266H4.958a.46.46,0,0,0-.458.458v15.01a1.839,1.839,0,0,0,1.833,1.833H24.667A1.839,1.839,0,0,0,26.5,25.734V10.724A.46.46,0,0,0,26.042,10.266ZM18.365,18.4H12.658a.822.822,0,0,1-.819-.7.8.8,0,0,1,.8-.9h5.706a.822.822,0,0,1,.819.7A.8.8,0,0,1,18.365,18.4Z" transform="translate(-0.208 -1.068)" fill="#fd9100"/>
  </g>
</svg>
